<svg width="352" height="67" viewBox="0 0 352 67" fill="none" xmlns="http://www.w3.org/2000/svg">
<g filter="url(#filter0_d_1_18)">
<g filter="url(#filter1_d_1_18)">
<rect x="4" width="59" height="59" fill="black"/>
</g>
<path d="M16.656 17.6H21.84V35.776H33.072V40H16.656V17.6ZM41.1525 21.76V27.68H51.5205V31.84H41.1525V40H35.9685V17.6H52.8965V21.76H41.1525Z" fill="white"/>
<path d="M85.656 21.6H90.84V39.776H102.072V44H85.656V21.6ZM112.684 44.256C110.87 44.256 109.238 43.8827 107.788 43.136C106.358 42.368 105.238 41.312 104.428 39.968C103.617 38.624 103.212 37.0987 103.212 35.392C103.212 33.6853 103.617 32.16 104.428 30.816C105.238 29.472 106.358 28.4267 107.788 27.68C109.238 26.912 110.87 26.528 112.684 26.528C114.497 26.528 116.118 26.912 117.548 27.68C118.977 28.4267 120.097 29.472 120.908 30.816C121.718 32.16 122.124 33.6853 122.124 35.392C122.124 37.0987 121.718 38.624 120.908 39.968C120.097 41.312 118.977 42.368 117.548 43.136C116.118 43.8827 114.497 44.256 112.684 44.256ZM112.684 40.16C113.964 40.16 115.009 39.7333 115.82 38.88C116.652 38.0053 117.068 36.8427 117.068 35.392C117.068 33.9413 116.652 32.7893 115.82 31.936C115.009 31.0613 113.964 30.624 112.684 30.624C111.404 30.624 110.348 31.0613 109.516 31.936C108.684 32.7893 108.268 33.9413 108.268 35.392C108.268 36.8427 108.684 38.0053 109.516 38.88C110.348 39.7333 111.404 40.16 112.684 40.16ZM142.08 26.784L134.816 44H129.664L122.431 26.784H127.584L132.352 38.496L137.28 26.784H142.08ZM160.512 35.456C160.512 35.52 160.48 35.968 160.416 36.8H147.392C147.626 37.8667 148.181 38.7093 149.056 39.328C149.93 39.9467 151.018 40.256 152.32 40.256C153.216 40.256 154.005 40.128 154.688 39.872C155.392 39.5947 156.042 39.168 156.64 38.592L159.296 41.472C157.674 43.328 155.306 44.256 152.192 44.256C150.25 44.256 148.533 43.8827 147.04 43.136C145.546 42.368 144.394 41.312 143.584 39.968C142.773 38.624 142.368 37.0987 142.368 35.392C142.368 33.7067 142.762 32.192 143.552 30.848C144.362 29.4827 145.461 28.4267 146.848 27.68C148.256 26.912 149.824 26.528 151.552 26.528C153.237 26.528 154.762 26.8907 156.128 27.616C157.493 28.3413 158.56 29.3867 159.328 30.752C160.117 32.096 160.512 33.664 160.512 35.456ZM151.584 30.304C150.453 30.304 149.504 30.624 148.736 31.264C147.968 31.904 147.498 32.7787 147.328 33.888H155.808C155.637 32.8 155.168 31.936 154.4 31.296C153.632 30.6347 152.693 30.304 151.584 30.304ZM163.835 20.256H168.827V44H163.835V20.256ZM190.548 26.784L182.772 45.056C181.983 47.04 181.002 48.4373 179.828 49.248C178.676 50.0587 177.279 50.464 175.636 50.464C174.74 50.464 173.855 50.3253 172.98 50.048C172.106 49.7707 171.391 49.3867 170.836 48.896L172.66 45.344C173.044 45.6853 173.482 45.952 173.972 46.144C174.484 46.336 174.986 46.432 175.476 46.432C176.159 46.432 176.714 46.2613 177.14 45.92C177.567 45.6 177.951 45.056 178.292 44.288L178.356 44.128L170.9 26.784H176.052L180.884 38.464L185.748 26.784H190.548ZM207.184 25.76V31.68H217.552V35.84H207.184V44H202V21.6H218.928V25.76H207.184ZM226.541 29.056C227.138 28.224 227.938 27.5947 228.941 27.168C229.965 26.7413 231.138 26.528 232.461 26.528V31.136C231.906 31.0933 231.533 31.072 231.341 31.072C229.911 31.072 228.791 31.4773 227.981 32.288C227.17 33.0773 226.765 34.272 226.765 35.872V44H221.773V26.784H226.541V29.056ZM235.429 26.784H240.421V44H235.429V26.784ZM237.925 24.384C237.008 24.384 236.261 24.1173 235.685 23.584C235.109 23.0507 234.821 22.3893 234.821 21.6C234.821 20.8107 235.109 20.1493 235.685 19.616C236.261 19.0827 237.008 18.816 237.925 18.816C238.842 18.816 239.589 19.072 240.165 19.584C240.741 20.096 241.029 20.736 241.029 21.504C241.029 22.336 240.741 23.0293 240.165 23.584C239.589 24.1173 238.842 24.384 237.925 24.384ZM261.918 35.456C261.918 35.52 261.886 35.968 261.822 36.8H248.798C249.033 37.8667 249.587 38.7093 250.462 39.328C251.337 39.9467 252.425 40.256 253.726 40.256C254.622 40.256 255.411 40.128 256.094 39.872C256.798 39.5947 257.449 39.168 258.046 38.592L260.702 41.472C259.081 43.328 256.713 44.256 253.598 44.256C251.657 44.256 249.939 43.8827 248.446 43.136C246.953 42.368 245.801 41.312 244.99 39.968C244.179 38.624 243.774 37.0987 243.774 35.392C243.774 33.7067 244.169 32.192 244.958 30.848C245.769 29.4827 246.867 28.4267 248.254 27.68C249.662 26.912 251.23 26.528 252.958 26.528C254.643 26.528 256.169 26.8907 257.534 27.616C258.899 28.3413 259.966 29.3867 260.734 30.752C261.523 32.096 261.918 33.664 261.918 35.456ZM252.99 30.304C251.859 30.304 250.91 30.624 250.142 31.264C249.374 31.904 248.905 32.7787 248.734 33.888H257.214C257.043 32.8 256.574 31.936 255.806 31.296C255.038 30.6347 254.099 30.304 252.99 30.304ZM275.706 26.528C277.839 26.528 279.556 27.168 280.858 28.448C282.18 29.728 282.842 31.6267 282.842 34.144V44H277.85V34.912C277.85 33.5467 277.551 32.5333 276.954 31.872C276.356 31.1893 275.492 30.848 274.362 30.848C273.103 30.848 272.1 31.2427 271.354 32.032C270.607 32.8 270.234 33.952 270.234 35.488V44H265.242V26.784H270.01V28.8C270.671 28.0747 271.492 27.52 272.474 27.136C273.455 26.7307 274.532 26.528 275.706 26.528ZM305.09 20.256V44H300.322V42.016C299.085 43.5093 297.293 44.256 294.946 44.256C293.325 44.256 291.853 43.8933 290.53 43.168C289.229 42.4427 288.205 41.408 287.458 40.064C286.711 38.72 286.338 37.1627 286.338 35.392C286.338 33.6213 286.711 32.064 287.458 30.72C288.205 29.376 289.229 28.3413 290.53 27.616C291.853 26.8907 293.325 26.528 294.946 26.528C297.143 26.528 298.861 27.2213 300.098 28.608V20.256H305.09ZM295.81 40.16C297.069 40.16 298.114 39.7333 298.946 38.88C299.778 38.0053 300.194 36.8427 300.194 35.392C300.194 33.9413 299.778 32.7893 298.946 31.936C298.114 31.0613 297.069 30.624 295.81 30.624C294.53 30.624 293.474 31.0613 292.642 31.936C291.81 32.7893 291.394 33.9413 291.394 35.392C291.394 36.8427 291.81 38.0053 292.642 38.88C293.474 39.7333 294.53 40.16 295.81 40.16ZM315.502 44.256C314.073 44.256 312.676 44.0853 311.31 43.744C309.945 43.3813 308.857 42.9333 308.046 42.4L309.71 38.816C310.478 39.3067 311.406 39.712 312.494 40.032C313.582 40.3307 314.649 40.48 315.694 40.48C317.806 40.48 318.862 39.9573 318.862 38.912C318.862 38.4213 318.574 38.0693 317.998 37.856C317.422 37.6427 316.537 37.4613 315.342 37.312C313.934 37.0987 312.772 36.8533 311.854 36.576C310.937 36.2987 310.137 35.808 309.454 35.104C308.793 34.4 308.462 33.3973 308.462 32.096C308.462 31.008 308.772 30.048 309.39 29.216C310.03 28.3627 310.948 27.7013 312.142 27.232C313.358 26.7627 314.788 26.528 316.43 26.528C317.646 26.528 318.852 26.6667 320.046 26.944C321.262 27.2 322.265 27.5627 323.054 28.032L321.39 31.584C319.876 30.7307 318.222 30.304 316.43 30.304C315.364 30.304 314.564 30.4533 314.03 30.752C313.497 31.0507 313.23 31.4347 313.23 31.904C313.23 32.4373 313.518 32.8107 314.094 33.024C314.67 33.2373 315.588 33.44 316.846 33.632C318.254 33.8667 319.406 34.1227 320.302 34.4C321.198 34.656 321.977 35.136 322.638 35.84C323.3 36.544 323.63 37.5253 323.63 38.784C323.63 39.8507 323.31 40.8 322.67 41.632C322.03 42.464 321.092 43.1147 319.854 43.584C318.638 44.032 317.188 44.256 315.502 44.256Z" fill="black"/>
</g>
<defs>
<filter id="filter0_d_1_18" x="0" y="0" width="327.63" height="67" filterUnits="userSpaceOnUse" color-interpolation-filters="sRGB">
<feFlood flood-opacity="0" result="BackgroundImageFix"/>
<feColorMatrix in="SourceAlpha" type="matrix" values="0 0 0 0 0 0 0 0 0 0 0 0 0 0 0 0 0 0 127 0" result="hardAlpha"/>
<feOffset dy="4"/>
<feGaussianBlur stdDeviation="2"/>
<feComposite in2="hardAlpha" operator="out"/>
<feColorMatrix type="matrix" values="0 0 0 0 0 0 0 0 0 0 0 0 0 0 0 0 0 0 0.25 0"/>
<feBlend mode="normal" in2="BackgroundImageFix" result="effect1_dropShadow_1_18"/>
<feBlend mode="normal" in="SourceGraphic" in2="effect1_dropShadow_1_18" result="shape"/>
</filter>
<filter id="filter1_d_1_18" x="0" y="0" width="67" height="67" filterUnits="userSpaceOnUse" color-interpolation-filters="sRGB">
<feFlood flood-opacity="0" result="BackgroundImageFix"/>
<feColorMatrix in="SourceAlpha" type="matrix" values="0 0 0 0 0 0 0 0 0 0 0 0 0 0 0 0 0 0 127 0" result="hardAlpha"/>
<feOffset dy="4"/>
<feGaussianBlur stdDeviation="2"/>
<feComposite in2="hardAlpha" operator="out"/>
<feColorMatrix type="matrix" values="0 0 0 0 0 0 0 0 0 0 0 0 0 0 0 0 0 0 0.25 0"/>
<feBlend mode="normal" in2="BackgroundImageFix" result="effect1_dropShadow_1_18"/>
<feBlend mode="normal" in="SourceGraphic" in2="effect1_dropShadow_1_18" result="shape"/>
</filter>
</defs>
</svg>
